<?xml version="1.0" encoding="UTF-8" standalone="no"?>
<!-- Created with Inkscape (http://www.inkscape.org/) -->

<svg
   width="32"
   height="32"
   viewBox="0 0 8.4666665 8.4666669"
   version="1.1"
   id="svg1039"
   inkscape:version="1.1 (1:1.1+202105261517+ce6663b3b7)"
   sodipodi:docname="dracula.svg"
   xmlns:inkscape="http://www.inkscape.org/namespaces/inkscape"
   xmlns:sodipodi="http://sodipodi.sourceforge.net/DTD/sodipodi-0.dtd"
   xmlns="http://www.w3.org/2000/svg"
   xmlns:svg="http://www.w3.org/2000/svg">
  <sodipodi:namedview
     id="namedview1041"
     pagecolor="#ffffff"
     bordercolor="#666666"
     borderopacity="1.0"
     inkscape:pageshadow="2"
     inkscape:pageopacity="0.0"
     inkscape:pagecheckerboard="0"
     inkscape:document-units="mm"
     showgrid="false"
     units="px"
     width="32px"
     inkscape:zoom="3.5679132"
     inkscape:cx="98.797246"
     inkscape:cy="87.305936"
     inkscape:window-width="1920"
     inkscape:window-height="1011"
     inkscape:window-x="0"
     inkscape:window-y="0"
     inkscape:window-maximized="1"
     inkscape:current-layer="layer1" />
  <defs
     id="defs1036" />
  <g
     inkscape:label="Layer 1"
     inkscape:groupmode="layer"
     id="layer1">
    <path
       id="path1240"
       style="fill:#000000;stroke-width:0.530445"
       d="M 4.233333,0.92604183 A 3.3072916,3.3072916 0 0 0 0.92604198,4.2333328 3.3072916,3.3072916 0 0 0 4.233333,7.5406248 3.3072916,3.3072916 0 0 0 7.5406247,4.2333328 3.3072916,3.3072916 0 0 0 4.233333,0.92604183 Z M 5.5908727,3.1987708 c 0.01729,-0.0017 0.03542,0.0024 0.05116,0.01344 l 0.01602,0.01137 1.080554,0.762227 c 0.05924,0.04178 0.03209,0.135184 -0.04031,0.138493 -0.212846,0.0098 -0.422598,0.09607 -0.584977,0.258899 -0.08624,0.08656 -0.150951,0.186324 -0.193787,0.293005 -0.01551,0.03815 -0.02789,0.07727 -0.03772,0.116789 -0.0116,-0.0073 -0.02327,-0.01439 -0.03514,-0.02119 -0.01019,-0.0058 -0.02032,-0.01166 -0.03049,-0.01705 -0.261239,-0.13782 -0.567571,-0.159868 -0.8433587,-0.06718 -0.09136,0.03055 -0.179044,0.07369 -0.260966,0.129708 -0.05517,0.03756 -0.107741,0.08072 -0.15658,0.129708 -0.218769,0.219655 -0.322671,0.510274 -0.312126,0.797368 h -0.01343 c 0.0095,-0.28715 -0.09557,-0.577436 -0.315226,-0.796334 -0.350706,-0.34946 -0.88235,-0.405992 -1.291911,-0.170533 -0.01182,0.0069 -0.02355,0.01382 -0.03514,0.02119 -0.03786,-0.149938 -0.115674,-0.291675 -0.233062,-0.408761 -0.162907,-0.162237 -0.373136,-0.247779 -0.58601,-0.256832 -0.07244,-0.0031 -0.09941,-0.0965 -0.04031,-0.138493 l 1.093473,-0.777213 c 0.04186,-0.02976 0.100711,-0.01059 0.116789,0.03824 l 0.05426,0.165882 c 0.09824,0.298469 0.362008,0.50812 0.66921,0.540535 0.04534,0.0048 0.08534,-0.0304 0.08527,-0.07596 l -10e-4,-0.333313 c -1.1e-4,-0.06436 0.07464,-0.09959 0.12454,-0.05891 h 5.29e-4 c 0.210566,0.171655 0.512484,0.170827 0.722437,-0.0016 0.04974,-0.04089 0.124925,-0.0055 0.125057,0.05891 l 5.29e-4,0.332796 c 1.27e-4,0.04571 0.03981,0.08092 0.08527,0.07596 0.219975,-0.0241 0.4175237,-0.138637 0.5472527,-0.311609 0.0515,-0.06846 0.09233,-0.146316 0.11989,-0.230993 l 0.05426,-0.166399 c 0.0099,-0.03052 0.03629,-0.04941 0.06511,-0.05219 z" />
  </g>
</svg>
