<?xml version="1.0" encoding="UTF-8" standalone="no"?>
<!-- Created with Inkscape (http://www.inkscape.org/) -->

<svg
   width="32"
   height="32"
   viewBox="0 0 8.4666662 8.4666669"
   version="1.1"
   id="svg2169"
   sodipodi:docname="light.svg"
   inkscape:version="1.1 (1:1.1+202105261517+ce6663b3b7)"
   xmlns:inkscape="http://www.inkscape.org/namespaces/inkscape"
   xmlns:sodipodi="http://sodipodi.sourceforge.net/DTD/sodipodi-0.dtd"
   xmlns="http://www.w3.org/2000/svg"
   xmlns:svg="http://www.w3.org/2000/svg">
  <sodipodi:namedview
     id="namedview15"
     pagecolor="#ffffff"
     bordercolor="#666666"
     borderopacity="1.0"
     inkscape:pageshadow="2"
     inkscape:pageopacity="0.0"
     inkscape:pagecheckerboard="0"
     showgrid="false"
     inkscape:zoom="15.644738"
     inkscape:cx="14.60555"
     inkscape:cy="14.477712"
     inkscape:window-width="1920"
     inkscape:window-height="1011"
     inkscape:window-x="0"
     inkscape:window-y="0"
     inkscape:window-maximized="1"
     inkscape:current-layer="svg2169" />
  <defs
     id="defs2166" />
  <g
     id="layer1"
     transform="matrix(0.97609859,0,0,0.97468345,0.02019807,0.02126938)">
    <g
       id="g4088"
       transform="matrix(0.05454355,0,0,0.05454355,0.53891684,0.53891699)">
      <path
         id="path949"
         style="fill:#181818;stroke-width:0.200182"
         d="m 86.362234,49.104433 a 26.345243,26.345243 0 0 1 0,37.2578 26.345243,26.345243 0 0 1 -37.2578,10e-7 26.345243,26.345243 0 0 1 0,-37.257802 26.345243,26.345243 0 0 1 37.2578,10e-7 z" />
      <path
         id="rect1053-2-7-2"
         style="fill:#181818;stroke-width:0.0868667"
         d="m 68.173424,36.855572 c -2.77,0 -5,-2.23 -5,-5 v -21.333 c 0,-2.7699994 2.23,-4.9999994 5,-4.9999994 2.769997,0 4.999997,2.23 4.999997,4.9999994 v 21.333 c 0,2.77 -2.23,5 -4.999997,5 z" />
      <path
         id="rect1053-2-7-0-9"
         style="fill:#181818;stroke-width:0.0868667"
         d="m 129.8539,67.282107 c 0,2.77 -2.23,5 -5,5 h -21.333 c -2.77,0 -4.999996,-2.23 -4.999996,-5 0,-2.77 2.229996,-5 4.999996,-5 h 21.333 c 2.77,0 5,2.23 5,5 z" />
      <path
         id="rect1053-2-7-0-9-7"
         style="fill:#181818;stroke-width:0.0868667"
         d="m 36.945771,67.282107 c 0,2.77 -2.23,5 -5,5 h -21.333 c -2.7700009,0 -5.0000029,-2.23 -5.0000029,-5 0,-2.77 2.230002,-5 5.0000029,-5 h 21.333 c 2.77,0 5,2.23 5,5 z" />
      <path
         id="rect1053-2-7"
         style="fill:#181818;stroke-width:0.0868667"
         d="m 68.173424,129.94409 c -2.77,0 -5,-2.23 -5,-5 v -21.333 c 0,-2.77 2.23,-4.999998 5,-4.999998 2.769997,0 4.999997,2.229998 4.999997,4.999998 v 21.333 c 0,2.77 -2.23,5 -4.999997,5 z" />
      <path
         id="rect1053-2-7-2-0"
         style="fill:#181818;stroke-width:0.0868667"
         d="m 89.567211,46.182695 c -1.958686,-1.958685 -1.958686,-5.112382 0,-7.071068 L 104.65192,24.026919 c 1.95868,-1.958686 5.11238,-1.958686 7.07107,0 1.95868,1.958683 1.95868,5.11238 0,7.071065 L 96.638277,46.182693 c -1.958686,1.958686 -5.112382,1.958686 -7.071066,2e-6 z" />
      <path
         id="rect1053-2-7-0-9-2"
         style="fill:#181818;stroke-width:0.0868667"
         d="m 111.66708,111.31219 c -1.95868,1.95868 -5.11238,1.95869 -7.07107,0 L 89.511304,96.227481 c -1.958686,-1.958686 -1.958676,-5.112385 3e-6,-7.071064 1.958686,-1.958686 5.112379,-1.958689 7.071064,-4e-6 l 15.084709,15.084707 c 1.95869,1.95869 1.95869,5.11238 0,7.07107 z" />
      <path
         id="rect1053-2-7-0-9-7-3"
         style="fill:#181818;stroke-width:0.0868667"
         d="m 45.971113,45.616223 c -1.958679,1.958679 -5.112382,1.958686 -7.071068,0 L 23.815336,30.531514 c -1.958686,-1.958686 -1.95868,-5.112391 -10e-7,-7.071069 1.958686,-1.958686 5.112383,-1.958685 7.071069,1e-6 l 15.084709,15.084709 c 1.958686,1.958686 1.958686,5.112382 0,7.071068 z" />
      <path
         id="rect1053-2-7-7"
         style="fill:#181818;stroke-width:0.0868667"
         d="m 23.743687,112.00622 c -1.958686,-1.95869 -1.958686,-5.11238 0,-7.07107 L 38.828396,89.850442 c 1.958686,-1.958686 5.112382,-1.958686 7.071068,0 1.958684,1.958684 1.958684,5.11238 -2e-6,7.071066 L 30.814753,112.00622 c -1.958686,1.95868 -5.112382,1.95868 -7.071066,0 z" />
    </g>
  </g>
</svg>
